<?xml version="1.0" standalone="no"?>
<!DOCTYPE svg PUBLIC "-//W3C//DTD SVG 20010904//EN"
 "http://www.w3.org/TR/2001/REC-SVG-20010904/DTD/svg10.dtd">
<svg version="1.0" xmlns="http://www.w3.org/2000/svg"
 width="849.000000pt" height="849.000000pt" viewBox="0 0 849.000000 849.000000"
 preserveAspectRatio="xMidYMid meet">

<g transform="translate(0.000000,849.000000) scale(0.100000,-0.100000)"
fill="#000000" stroke="none">
<path d="M4022 7485 c-179 -33 -360 -111 -502 -219 -55 -41 -445 -426 -1091
-1073 -1064 -1067 -1067 -1070 -1149 -1246 -85 -180 -114 -335 -107 -557 5
-154 7 -169 64 -362 5 -17 -29 -18 -617 -18 -550 0 -621 -2 -616 -15 3 -8 104
-158 224 -333 120 -174 221 -322 225 -328 3 -6 -95 -159 -219 -340 -125 -181
-229 -335 -231 -341 -4 -10 247 -13 1233 -13 l1238 0 506 -503 c411 -410 521
-514 591 -560 222 -147 437 -205 713 -194 164 6 285 33 426 96 185 81 224 114
770 658 l506 503 1238 0 c986 0 1237 3 1233 13 -2 6 -106 160 -231 341 -124
181 -223 333 -220 338 4 5 105 154 226 330 120 176 222 326 225 334 4 12 -83
14 -619 14 l-624 0 23 73 c42 129 56 237 50 402 -9 277 -88 488 -265 705 -99
122 -2027 2040 -2106 2095 -143 100 -314 171 -484 200 -103 18 -310 18 -410 0z
m447 -255 c111 -31 187 -66 281 -128 71 -46 210 -180 848 -816 419 -418 762
-764 762 -768 0 -5 -285 -8 -632 -8 l-633 1 -205 357 -206 357 -454 2 -455 3
-223 -388 c-122 -213 -223 -391 -224 -396 -1 -4 99 -183 223 -397 l224 -389
455 0 455 1 205 357 206 357 704 3 705 2 165 -167 c182 -185 263 -294 313
-421 87 -226 88 -475 0 -702 l-29 -75 -522 -3 c-287 -1 -522 0 -522 3 0 3 54
100 121 215 l121 210 -173 300 -173 300 -347 0 -347 0 -148 -260 -149 -259
-585 -1 -585 0 -150 260 -150 260 -346 0 -347 0 -169 -292 c-92 -161 -169
-297 -171 -303 -1 -6 51 -105 118 -219 66 -114 120 -210 120 -212 0 -2 -234
-4 -521 -4 l-520 0 -25 55 c-53 121 -69 208 -69 375 0 131 4 168 23 239 29
108 79 215 138 299 62 88 1980 2012 2087 2093 121 92 277 157 432 182 74 12
301 -2 374 -23z m227 -1510 c85 -146 154 -270 154 -275 0 -6 -69 -130 -153
-275 l-152 -265 -315 -2 -315 -3 -155 271 c-85 148 -154 273 -153 277 2 8 276
483 299 520 l15 22 311 -2 311 -3 153 -265z m214 -1527 c52 -91 97 -170 98
-175 2 -5 -47 -7 -109 -6 l-113 3 -50 87 -51 88 -456 0 -457 0 -49 -87 -50
-88 -112 -3 c-61 -1 -111 0 -111 3 0 3 44 82 98 175 l97 170 585 0 585 -1 95
-166z m-1569 -286 c36 -28 39 -51 39 -334 l0 -278 88 86 c234 228 248 239 284
239 46 0 88 -40 88 -84 0 -27 -17 -47 -125 -151 l-125 -120 121 -130 c66 -71
129 -143 140 -160 34 -53 22 -103 -32 -131 -55 -28 -78 -14 -226 142 -75 79
-142 144 -148 144 -6 0 -23 -12 -37 -27 -24 -26 -27 -37 -30 -126 -3 -94 -4
-100 -31 -123 -41 -35 -100 -29 -134 15 -9 12 -12 137 -13 509 l0 493 25 24
c27 28 88 34 116 12z m-2054 -69 l23 -21 0 -363 c0 -341 -1 -367 -20 -418 -27
-72 -85 -135 -162 -177 -60 -33 -67 -34 -168 -34 -91 0 -112 3 -155 24 -27 14
-69 44 -92 68 -36 36 -43 49 -43 82 0 32 6 44 31 65 46 39 75 34 150 -26 61
-49 151 -50 209 -1 61 51 61 52 63 430 l2 345 28 24 c37 32 101 33 134 2z
m3730 0 l23 -21 0 -363 c0 -341 -1 -367 -20 -418 -27 -72 -85 -135 -162 -177
-60 -33 -67 -34 -168 -34 -91 0 -112 3 -155 24 -27 14 -69 44 -92 68 -36 36
-43 49 -43 82 0 32 6 44 31 65 46 39 75 34 150 -26 61 -49 151 -50 209 -1 61
51 61 52 63 430 l2 345 28 24 c37 32 101 33 134 2z m-3047 -234 c30 -14 62
-32 71 -40 15 -13 18 -12 29 17 24 57 98 70 148 26 l22 -20 0 -351 c-1 -369
-1 -370 -47 -394 -47 -26 -105 -4 -124 45 l-10 26 -22 -21 c-76 -70 -220 -93
-329 -52 -253 95 -322 489 -122 695 97 101 251 128 384 69z m898 26 c155 -26
234 -114 171 -194 -27 -34 -68 -34 -126 -1 -146 86 -320 -3 -340 -174 -12
-104 39 -211 119 -253 63 -32 156 -30 225 5 29 15 59 27 67 27 60 0 104 -75
73 -123 -42 -64 -162 -101 -306 -95 -74 3 -107 9 -143 26 -134 66 -218 206
-218 369 0 214 113 369 300 409 70 16 100 16 178 4z m2800 0 c132 -22 236 -99
295 -220 31 -62 32 -70 32 -185 0 -109 -2 -125 -27 -177 -37 -80 -107 -152
-187 -191 -62 -30 -71 -32 -181 -32 -110 0 -119 2 -181 32 -237 117 -294 451
-112 653 64 71 173 121 283 129 8 0 43 -4 78 -9z m1021 -16 c69 -29 109 -85
130 -182 16 -75 14 -542 -2 -563 -34 -44 -93 -50 -134 -15 l-28 24 -5 249 c-6
277 -10 296 -74 327 -47 22 -104 20 -156 -6 -89 -46 -99 -81 -100 -365 0 -188
-1 -204 -20 -223 -45 -45 -114 -35 -143 21 -16 31 -17 64 -15 362 l3 329 28
24 c55 47 147 16 147 -51 0 -14 2 -25 4 -25 2 0 19 14 37 31 36 34 98 68 144
80 40 11 141 1 184 -17z m791 -10 c30 -14 62 -32 71 -40 15 -13 18 -12 29 17
24 57 98 70 148 26 l22 -20 0 -351 c-1 -369 -1 -370 -47 -394 -47 -26 -105 -4
-124 45 l-10 26 -22 -21 c-76 -70 -220 -93 -329 -52 -253 95 -322 489 -122
695 97 101 251 128 384 69z m-3705 -974 c4 -6 167 -10 455 -10 288 0 451 4
455 10 4 6 176 10 483 10 l477 0 -405 -404 c-485 -483 -530 -517 -777 -588
-113 -33 -350 -32 -473 1 -114 31 -233 89 -327 160 -43 33 -251 233 -463 445
l-385 386 477 0 c307 0 479 -4 483 -10z"/>
<path d="M1775 3451 c-81 -37 -127 -118 -128 -226 0 -122 61 -211 163 -235
104 -25 212 41 244 151 20 66 20 102 1 167 -39 129 -168 194 -280 143z"/>
<path d="M5550 3461 c-86 -26 -142 -88 -160 -177 -19 -89 4 -177 61 -233 46
-46 85 -63 149 -64 202 -2 296 267 147 421 -46 48 -135 72 -197 53z"/>
<path d="M7285 3451 c-81 -37 -127 -118 -128 -226 0 -122 61 -211 163 -235
104 -25 212 41 244 151 20 66 20 102 1 167 -39 129 -168 194 -280 143z"/>
</g>
</svg>
